<?xml version="1.0" encoding="utf-8"?>
<!-- Generator: Adobe Illustrator 16.0.0, SVG Export Plug-In . SVG Version: 6.00 Build 0)  -->
<!DOCTYPE svg PUBLIC "-//W3C//DTD SVG 1.1//EN" "http://www.w3.org/Graphics/SVG/1.1/DTD/svg11.dtd">
<svg version="1.1" id="Layer_1" xmlns="http://www.w3.org/2000/svg" xmlns:xlink="http://www.w3.org/1999/xlink" x="0px" y="0px"
	 width="712px" height="238px" viewBox="0 0 712 238" enable-background="new 0 0 712 238" xml:space="preserve">
<ellipse fill="#005673" cx="568.314" cy="179.973" rx="91.145" ry="41.911"/>
<g>
	<g>
		<path fill="#005673" d="M88.122,141.31c0,3.66-0.746,6.938-2.234,9.83c-1.49,2.895-3.491,5.342-6,7.341
			c-2.511,2-5.47,3.532-8.873,4.596c-3.405,1.065-7.021,1.596-10.852,1.596H16.885V74.031H63.61c3.147,0,6,0.683,8.553,2.043
			c2.553,1.362,4.724,3.127,6.511,5.298c1.788,2.17,3.17,4.64,4.149,7.404c0.977,2.767,1.468,5.554,1.468,8.362
			c0,4.426-1.129,8.575-3.383,12.447c-2.256,3.874-5.47,6.747-9.639,8.617c5.19,1.532,9.297,4.321,12.319,8.362
			C86.609,130.607,88.122,135.522,88.122,141.31z M31.184,86.414v26.682h26.299c1.787,0,3.425-0.339,4.915-1.021
			c1.488-0.68,2.809-1.596,3.958-2.745c1.149-1.149,2.042-2.532,2.681-4.149c0.639-1.616,0.958-3.403,0.958-5.362
			c0-3.914-1.107-7.127-3.319-9.639c-2.214-2.509-5.023-3.766-8.426-3.766H31.184z M73.44,138.629c0-1.871-0.319-3.658-0.958-5.362
			c-0.639-1.701-1.49-3.191-2.553-4.468c-1.065-1.277-2.362-2.298-3.894-3.064c-1.532-0.766-3.191-1.148-4.979-1.148H31.184v27.702
			h28.979c1.871,0,3.617-0.36,5.234-1.085c1.616-0.722,3.02-1.701,4.213-2.936c1.191-1.233,2.126-2.682,2.809-4.341
			C73.099,142.267,73.44,140.502,73.44,138.629z"/>
		<path fill="#005673" d="M131.526,165.948c-5.192,0-9.916-0.915-14.171-2.744c-4.257-1.829-7.895-4.319-10.915-7.469
			c-3.022-3.147-5.362-6.808-7.021-10.979c-1.66-4.17-2.489-8.596-2.489-13.277c0-4.68,0.83-9.128,2.489-13.341
			s4-7.915,7.021-11.107c3.02-3.191,6.658-5.701,10.915-7.532c4.255-1.83,9.021-2.745,14.298-2.745c5.19,0,9.894,0.938,14.107,2.809
			c4.213,1.873,7.807,4.363,10.788,7.468c2.978,3.108,5.254,6.725,6.83,10.851c1.574,4.13,2.361,8.448,2.361,12.958
			c0,1.021-0.043,1.979-0.127,2.873c-0.086,0.894-0.171,1.64-0.255,2.233h-53.491c0.255,2.98,0.958,5.661,2.106,8.043
			c1.149,2.384,2.637,4.448,4.468,6.191c1.829,1.746,3.914,3.086,6.255,4.021c2.34,0.938,4.787,1.404,7.34,1.404
			c1.871,0,3.723-0.233,5.554-0.702c1.829-0.467,3.511-1.148,5.042-2.042c1.532-0.894,2.893-1.979,4.085-3.256
			c1.191-1.276,2.126-2.681,2.809-4.213l12,3.447c-2.298,5.022-6.107,9.128-11.426,12.319
			C144.781,164.353,138.589,165.948,131.526,165.948z M151.824,126.245c-0.255-2.809-0.958-5.403-2.106-7.787
			c-1.149-2.382-2.617-4.405-4.404-6.064c-1.788-1.659-3.874-2.956-6.256-3.894c-2.383-0.936-4.895-1.404-7.532-1.404
			c-2.639,0-5.128,0.469-7.468,1.404c-2.342,0.938-4.405,2.234-6.192,3.894c-1.787,1.66-3.235,3.683-4.34,6.064
			c-1.107,2.384-1.788,4.979-2.043,7.787H151.824z"/>
		<path fill="#005673" d="M177.739,180.374c1.277,0.256,2.531,0.467,3.766,0.639c1.233,0.17,2.234,0.256,3,0.256
			c1.105,0,2.063-0.235,2.873-0.702c0.808-0.469,1.638-1.299,2.489-2.49c0.85-1.192,1.724-2.872,2.617-5.042
			c0.894-2.171,1.935-4.959,3.128-8.362l-27.448-66.768h14.426l20.682,54.384l18.383-54.384h13.277l-30.256,82.215
			c-1.362,3.83-3.724,7.041-7.085,9.639c-3.363,2.595-7.682,3.894-12.958,3.894c-1.021,0-2.086-0.063-3.192-0.191
			c-1.107-0.128-2.342-0.405-3.702-0.83V180.374z"/>
		<path fill="#005673" d="M272.977,165.948c-5.278,0-10.021-0.938-14.234-2.809s-7.81-4.382-10.788-7.532
			c-2.98-3.147-5.278-6.83-6.894-11.043c-1.618-4.213-2.425-8.617-2.425-13.213s0.808-9,2.425-13.213
			c1.616-4.213,3.936-7.893,6.958-11.043c3.02-3.147,6.639-5.659,10.852-7.532c4.213-1.871,8.915-2.809,14.107-2.809
			c5.19,0,9.894,0.938,14.106,2.809c4.213,1.873,7.83,4.385,10.852,7.532c3.02,3.15,5.34,6.83,6.958,11.043
			c1.616,4.213,2.426,8.617,2.426,13.213s-0.81,9-2.426,13.213c-1.618,4.213-3.938,7.896-6.958,11.043
			c-3.022,3.15-6.639,5.661-10.852,7.532S278.167,165.948,272.977,165.948z M253.062,131.479c0,3.235,0.511,6.214,1.532,8.937
			c1.021,2.725,2.426,5.086,4.213,7.085c1.788,2.001,3.894,3.575,6.319,4.724c2.426,1.149,5.043,1.724,7.852,1.724
			s5.426-0.574,7.851-1.724c2.426-1.148,4.532-2.745,6.319-4.787c1.788-2.043,3.192-4.425,4.213-7.149
			c1.021-2.723,1.532-5.701,1.532-8.937c0-3.147-0.511-6.105-1.532-8.872c-1.021-2.765-2.425-5.171-4.213-7.213
			c-1.787-2.042-3.894-3.638-6.319-4.787c-2.425-1.149-5.042-1.724-7.851-1.724c-2.725,0-5.298,0.596-7.724,1.787
			c-2.426,1.193-4.532,2.809-6.319,4.852c-1.788,2.042-3.214,4.448-4.277,7.212C253.592,125.373,253.062,128.332,253.062,131.479z"
			/>
		<path fill="#005673" d="M379.703,164.672h-14.044v-37.405c0-6.298-1.001-10.872-3-13.724c-2.001-2.851-4.959-4.277-8.872-4.277
			c-2.043,0-4.086,0.383-6.128,1.149s-3.958,1.851-5.745,3.255c-1.788,1.404-3.383,3.064-4.788,4.979s-2.489,4.021-3.255,6.319
			v39.703h-14.043V97.904h12.766v13.405c2.554-4.51,6.256-8.063,11.107-10.66c4.851-2.595,10.213-3.894,16.086-3.894
			c3.999,0,7.276,0.724,9.83,2.17c2.553,1.448,4.574,3.427,6.064,5.937c1.488,2.511,2.531,5.406,3.127,8.681
			c0.596,3.277,0.895,6.746,0.895,10.404V164.672z"/>
		<path fill="#005673" d="M423.234,165.948c-4.514,0-8.682-0.915-12.512-2.744s-7.148-4.319-9.957-7.469
			c-2.809-3.147-5.002-6.83-6.576-11.043s-2.361-8.745-2.361-13.596c0-4.68,0.744-9.084,2.234-13.214
			c1.488-4.126,3.574-7.765,6.256-10.915c2.682-3.148,5.828-5.637,9.447-7.468c3.615-1.83,7.596-2.745,11.936-2.745
			c5.363,0,10.086,1.299,14.172,3.894c4.084,2.597,7.275,5.894,9.574,9.894V71.478h14.043v76.598c0,1.618,0.275,2.768,0.83,3.447
			c0.553,0.683,1.551,1.065,3,1.149v12c-1.449,0.255-2.617,0.425-3.512,0.511c-0.893,0.084-1.639,0.128-2.234,0.128
			c-2.809,0-5.105-0.723-6.893-2.171c-1.787-1.446-2.768-3.319-2.936-5.617l-0.256-4.979c-2.471,4.171-5.832,7.448-10.086,9.83
			C433.148,164.756,428.424,165.948,423.234,165.948z M426.682,153.948c2.041,0,4.084-0.339,6.127-1.021
			c2.043-0.68,3.914-1.615,5.617-2.809c1.701-1.19,3.17-2.595,4.404-4.213c1.232-1.615,2.107-3.361,2.617-5.234v-17.489
			c-0.766-2.127-1.852-4.086-3.256-5.873s-3-3.319-4.787-4.596c-1.787-1.276-3.682-2.254-5.682-2.936
			c-2-0.68-4.021-1.021-6.063-1.021c-2.809,0-5.385,0.638-7.725,1.915c-2.342,1.276-4.361,2.98-6.064,5.106
			c-1.703,2.128-3.043,4.554-4.021,7.277c-0.979,2.725-1.467,5.533-1.467,8.426c0,3.063,0.529,5.958,1.596,8.681
			c1.063,2.726,2.531,5.106,4.404,7.149c1.871,2.043,4.021,3.66,6.447,4.852C421.256,153.354,423.873,153.948,426.682,153.948z"/>
	</g>
</g>
<path fill="#FBAA19" d="M592.965,15.004c-57.583,0-104.259,46.678-104.259,104.259c0,57.579,46.676,104.256,104.259,104.256
	c57.581,0,104.258-46.677,104.258-104.256C697.223,61.682,650.546,15.004,592.965,15.004z M607.396,177.65
	c0-0.48,0.021-1.143,0.073-2.003c0.046-0.855,0.07-1.33,0.07-1.429c0-0.093,0.142-0.426,0.427-0.999
	c0.289-0.571,0.596-1.166,0.932-1.787c0.331-0.617,0.644-1.213,0.928-1.784c0.286-0.572,0.476-0.951,0.57-1.144
	c0.094-0.287,0.406-1.049,0.93-2.285c0.523-1.237,1.093-2.62,1.715-4.146c0.619-1.522,1.212-3.022,1.787-4.501
	c0.569-1.475,1.001-2.595,1.285-3.356l4.285-11.433c0.574-1.428,1.359-3.451,2.359-6.071c1.002-2.621,2.049-5.311,3.144-8.073
	c1.094-2.764,2.07-5.237,2.929-7.43c0.858-2.19,1.38-3.573,1.571-4.145l1.428-2.858c0.382-1.143,1.002-2.858,1.858-5.145
	c0.86-2.286,1.764-4.645,2.716-7.073c0.951-2.428,1.807-4.666,2.571-6.715c0.762-2.047,1.236-3.358,1.428-3.93
	c0.192-0.378,0.478-1.308,0.859-2.786c0.38-1.476,0.569-2.451,0.569-2.929v-1.429v-1.429c-0.189,0.096-0.452,0.31-0.784,0.642
	c-0.335,0.336-0.55,0.596-0.645,0.787l-15.715,17.146l-1.429,1.429c-0.383,0.286-1,0.785-1.859,1.5
	c-0.857,0.714-1.737,1.454-2.641,2.214c-0.907,0.764-1.742,1.478-2.503,2.144c-0.765,0.667-1.286,1.096-1.571,1.286
	c-0.283,0.192-0.716,0.5-1.285,0.929c-0.574,0.428-1.168,0.882-1.786,1.357c-0.623,0.479-1.192,0.907-1.716,1.287
	c-0.522,0.381-0.835,0.62-0.93,0.714c-0.569,0.382-1.38,0.882-2.429,1.5c-1.05,0.62-2.165,1.334-3.356,2.144
	c-1.192,0.81-2.431,1.619-3.717,2.428c-1.285,0.812-2.404,1.55-3.356,2.215c-0.953,0.569-1.715,1.025-2.287,1.357
	c-0.57,0.334-1.095,0.62-1.57,0.856c-0.479,0.24-1.001,0.5-1.572,0.786c-0.572,0.287-1.285,0.667-2.143,1.143
	c-1.62,0.859-2.695,1.408-3.217,1.644c-0.524,0.24-1.215,0.454-2.07,0.643c-1.05,0.19-2.359,0.407-3.931,0.642
	c-1.57,0.241-2.641,0.359-3.215,0.359c-0.191,0-0.882,0.024-2.071,0.069c-1.191,0.05-2.071,0.073-2.645,0.073
	c-0.477,0-1.213-0.022-2.214-0.073c-1.002-0.044-1.55-0.069-1.644-0.069c-1.05-0.476-1.906-0.858-2.572-1.144
	c-0.668-0.286-1.286-0.594-1.855-0.929c-0.574-0.333-1.001-0.593-1.286-0.786c-0.195-0.094-0.456-0.308-0.786-0.643
	c-0.336-0.333-0.549-0.593-0.643-0.786c-0.289-0.477-0.765-1.333-1.433-2.574c-0.666-1.235-1.379-2.521-2.141-3.857
	c-0.764-1.332-1.481-2.618-2.144-3.856c-0.667-1.237-1.144-2.095-1.428-2.572c-0.098,0-0.217-0.022-0.358-0.071
	c-0.143-0.047-0.265-0.072-0.358-0.072c-0.095,0-0.334,0.05-0.713,0.143c-0.573,0.763-1.025,1.382-1.358,1.857
	c-0.334,0.478-0.644,0.929-0.929,1.357c-0.285,0.429-0.479,0.785-0.572,1.072c-0.57,1.049-1.429,2.597-2.572,4.644
	c-1.14,2.049-2.335,4.143-3.569,6.288c-1.241,2.143-2.359,4.072-3.36,5.787c-0.997,1.714-1.641,2.812-1.929,3.287
	c-0.379,0.666-1.12,2.048-2.213,4.144c-1.096,2.096-2.239,4.358-3.432,6.787c-1.193,2.43-2.335,4.764-3.427,7
	c-1.098,2.24-1.884,3.883-2.359,4.932l-4.285,10.002c-0.099,0.191-0.31,0.452-0.643,0.784c-0.339,0.335-0.599,0.551-0.786,0.646
	c-0.765,0.095-1.241,0.142-1.429,0.142c-0.194,0-0.455-0.023-0.788-0.073c-0.335-0.045-0.55-0.068-0.645-0.068l-2.855-1.43
	c-0.191-0.094-0.451-0.334-0.786-0.716c-0.334-0.379-0.548-0.619-0.643-0.714c-0.19-0.287-0.453-1.001-0.785-2.144
	c-0.334-1.143-0.549-1.858-0.643-2.145c0-0.093-0.025-0.402-0.074-0.928c-0.048-0.522-0.068-0.93-0.068-1.215
	c0-0.189,0.021-0.547,0.068-1.071c0.049-0.522,0.074-0.879,0.074-1.07c0.284-0.573,0.833-1.596,1.643-3.073
	c0.807-1.477,1.689-3.072,2.642-4.787c0.953-1.716,1.836-3.309,2.646-4.787c0.806-1.476,1.355-2.499,1.644-3.072
	c0.476-0.951,1.262-2.475,2.356-4.571c1.095-2.095,2.263-4.287,3.5-6.575c1.236-2.284,2.38-4.402,3.431-6.355
	c1.047-1.955,1.761-3.264,2.144-3.931l17.145-32.864l4.289-7.144c0.092-0.286,0.284-0.69,0.569-1.215
	c0.288-0.522,0.572-1.094,0.858-1.714c0.284-0.619,0.569-1.19,0.857-1.715c0.286-0.522,0.477-0.879,0.57-1.071l1.429-4.287
	l7.146-14.288c0.094-0.191,0.309-0.477,0.643-0.858c0.335-0.38,0.595-0.571,0.786-0.571c0.094,0,0.548-0.023,1.359-0.072
	c0.806-0.046,1.404-0.072,1.786-0.072c0.38,0,1.236,0.049,2.571,0.144c0.093,0.096,0.284,0.382,0.57,0.857
	c0.286,0.478,0.574,1,0.857,1.571c0.285,0.572,0.571,1.168,0.855,1.787c0.289,0.62,0.476,1.12,0.573,1.5
	c0,0.097,0.021,0.311,0.07,0.643c0.048,0.335,0.072,0.596,0.072,0.787c0,0.192-0.048,0.667-0.143,1.429
	c-0.098,0.192-0.358,0.642-0.786,1.358c-0.43,0.714-0.883,1.453-1.358,2.214c-0.476,0.764-0.928,1.5-1.354,2.215
	c-0.432,0.714-0.692,1.167-0.787,1.357v1.143v1.714v1.858v1c0,0.191-0.12,0.643-0.356,1.358c-0.24,0.714-0.524,1.454-0.858,2.215
	c-0.333,0.763-0.667,1.5-1.002,2.214c-0.332,0.714-0.548,1.168-0.642,1.357c-0.094,0.286-0.237,0.714-0.428,1.286
	c-0.192,0.571-0.358,1.167-0.501,1.786c-0.143,0.62-0.264,1.191-0.358,1.714c-0.093,0.524-0.142,0.834-0.142,0.929v1.144
	c0,0.667-0.025,1.454-0.068,2.357c-0.054,0.907-0.074,1.835-0.074,2.786v2.288v1.714c0,0.763,0.021,1.621,0.074,2.572
	c0.043,0.954,0.068,1.857,0.068,2.714v1.572c0.191,0.382,0.667,1.122,1.429,2.214c0.76,1.097,1.236,1.787,1.429,2.073
	c0.288,0.382,0.789,0.928,1.5,1.644c0.717,0.713,1.164,1.12,1.359,1.213c1.331,0.096,2.189,0.143,2.572,0.143
	c0.379,0,0.947-0.022,1.713-0.071c0.762-0.047,1.237-0.072,1.43-0.072c0.285,0,0.784-0.071,1.499-0.214
	c0.714-0.144,1.451-0.286,2.216-0.43c0.76-0.142,1.477-0.286,2.143-0.428c0.665-0.142,1.096-0.26,1.287-0.357
	c0.094,0,0.428-0.144,1-0.429c0.572-0.285,1.165-0.594,1.786-0.929c0.619-0.332,1.214-0.643,1.787-0.929
	c0.57-0.285,0.95-0.476,1.14-0.572l4.29-1.429l4.284-2.859l2.86-1.428c0.188-0.093,0.57-0.333,1.14-0.714
	c0.574-0.379,1.168-0.808,1.786-1.287c0.618-0.475,1.193-0.927,1.718-1.357c0.521-0.428,0.879-0.735,1.07-0.928
	c0.572-0.476,1.428-1.215,2.572-2.215c1.143-1,2.307-2.023,3.5-3.073c1.191-1.047,2.311-2.023,3.36-2.928
	c1.046-0.905,1.713-1.5,1.997-1.787c0.858-0.856,2.165-2.143,3.932-3.857c1.762-1.714,3.572-3.477,5.428-5.287
	c1.859-1.809,3.524-3.477,5.002-5.001c1.477-1.522,2.404-2.522,2.787-3c0.094-0.19,0.5-0.762,1.214-1.715
	c0.714-0.951,1.55-2.023,2.501-3.215c0.948-1.19,1.88-2.404,2.788-3.644c0.902-1.237,1.592-2.19,2.07-2.858l5.714-8.573
	c0.284-0.379,0.786-0.928,1.502-1.643c0.712-0.714,1.164-1.119,1.358-1.214c0.091,0,0.473-0.023,1.14-0.071
	c0.668-0.047,1.193-0.072,1.573-0.072s0.95,0.025,1.715,0.072c0.761,0.048,1.188,0.071,1.285,0.071c0.095,0,0.311,0.192,0.645,0.572
	c0.333,0.381,0.594,0.667,0.784,0.857c0.191,0.286,0.478,0.786,0.858,1.5c0.379,0.714,0.57,1.167,0.57,1.357
	c0,0.096,0.025,0.571,0.073,1.429c0.045,0.857,0.07,1.524,0.07,2c0,3.622-0.478,7.169-1.43,10.645
	c-0.952,3.479-1.953,6.884-2.999,10.217c-0.098,0.381-0.285,0.977-0.574,1.786c-0.284,0.81-0.568,1.667-0.854,2.572
	c-0.286,0.906-0.574,1.764-0.858,2.572c-0.285,0.811-0.478,1.357-0.57,1.643l-2.861,7.145l-4.284,11.43
	c-0.286,0.572-0.692,1.573-1.217,3.001c-0.521,1.429-1.094,2.908-1.713,4.431c-0.619,1.523-1.191,2.954-1.714,4.287
	c-0.524,1.334-0.882,2.193-1.074,2.572l-1.429,2.856l-2.856,7.146l-11.43,34.291c-0.097,0.287-0.334,1.144-0.716,2.572
	c-0.382,1.431-0.785,2.979-1.214,4.646c-0.427,1.666-0.883,3.191-1.359,4.571c-0.476,1.38-0.809,2.216-1,2.5
	c-0.094,0.189-0.354,0.524-0.785,1.001c-0.429,0.475-0.952,1.023-1.572,1.642c-0.618,0.619-1.235,1.218-1.854,1.787
	c-0.622,0.57-1.123,1.001-1.502,1.286h-0.573h-0.855c-0.382-0.097-0.883-0.241-1.501-0.428c-0.618-0.195-1.237-0.357-1.857-0.501
	c-0.62-0.142-1.406-0.308-2.358-0.5c-0.19-0.097-0.451-0.501-0.785-1.215s-0.549-1.263-0.643-1.642c0-0.098-0.024-0.622-0.07-1.572
	C607.416,178.838,607.396,178.126,607.396,177.65z"/>
</svg>
